<svg width="1320" height="1320" viewBox="0 0 1320 1320" fill="none" xmlns="http://www.w3.org/2000/svg">
<path d="M1003.04 708.972L528.867 976.717C491.203 997.985 444.587 970.773 444.587 927.519V392.028C444.587 348.774 491.203 321.562 528.867 342.83L1003.04 610.575C1041.33 632.197 1041.33 687.35 1003.04 708.972Z" stroke="#0A1C40" stroke-width="39"/>
<path d="M1301.74 659.773C1311.51 659.773 1319.45 651.855 1319.18 642.093C1317.02 561.523 1300.11 481.979 1269.23 407.424C1238.34 332.868 1194.06 264.661 1138.62 206.161C1131.9 199.073 1120.68 199.089 1113.78 205.995L1039.85 279.922C1032.95 286.827 1032.97 298.003 1039.64 305.139C1082.12 350.613 1116.11 403.386 1139.96 460.966C1163.81 518.546 1177.09 579.902 1179.21 642.095C1179.54 651.854 1187.43 659.773 1197.19 659.773H1301.74Z" fill="#0A1C40"/>
<path d="M1017.7 126.966C1023.14 118.858 1020.99 107.85 1012.74 102.627C875.316 15.6161 710.54 -17.5339 550.16 9.56358C540.532 11.1905 534.293 20.5105 536.177 30.0923L556.35 132.677C558.234 142.259 567.529 148.467 577.17 146.91C701.116 126.888 828.157 152.446 934.718 218.843C943.006 224.007 953.979 221.876 959.422 213.768L1017.7 126.966Z" fill="#0A1C40" fill-opacity="0.5"/>
<path d="M415.72 66.3446C412.003 57.3144 401.657 52.9857 392.729 56.9435C244.034 122.864 124.924 241.451 58.3506 389.856C54.3536 398.766 58.6368 409.131 67.6506 412.888L164.154 453.109C173.167 456.866 183.493 452.587 187.555 443.706C239.769 329.525 331.602 238.095 446.011 186.383C454.91 182.361 459.234 172.054 455.517 163.023L415.72 66.3446Z" fill="#0A1C40"/>
<path d="M38.2177 500.974C28.756 498.558 19.1021 504.266 16.94 513.789C-19.0729 672.405 4.82217 838.775 84.0213 980.844C88.7763 989.373 99.6465 992.134 108.046 987.152L197.968 933.817C206.367 928.835 209.107 917.999 204.414 909.435C144.073 799.332 125.65 671.062 152.563 548.427C154.657 538.889 148.977 529.262 139.516 526.845L38.2177 500.974Z" fill="#66697B"/>
<path d="M159.828 1061.84C152.216 1067.96 150.989 1079.11 157.309 1086.55C262.574 1210.55 409.995 1291.28 571.165 1313.18C580.842 1314.5 589.573 1307.46 590.629 1297.75L601.931 1193.82C602.986 1184.11 595.963 1175.41 586.296 1174.03C462.012 1156.22 348.352 1093.98 266.407 998.853C260.034 991.454 248.925 990.219 241.313 996.338L159.828 1061.84Z" fill="#0A1C40"/>
<path d="M660 1301.51C660 1311.28 667.92 1319.22 677.681 1318.96C840.276 1314.6 995.559 1250.28 1113.61 1138.39C1120.7 1131.67 1120.68 1120.46 1113.78 1113.55L1039.85 1039.62C1032.95 1032.72 1021.77 1032.75 1014.63 1039.41C922.885 1125.12 803.163 1174.71 677.682 1178.98C667.922 1179.31 660 1187.2 660 1196.96L660 1301.51Z" fill="#66697B"/>
</svg>
