<?xml version="1.0" encoding="UTF-8"?>
<svg version="1.1" xmlns="http://www.w3.org/2000/svg" width="200" height="200">
<path d="M0 0 C1.19633068 0.67480165 2.39303301 1.3489448 3.59008789 2.02246094 C12.4106432 6.99987061 21.16283079 12.09636171 29.88793945 17.23901367 C37.21806561 21.54850035 44.63721318 25.66997154 52.17163086 29.61230469 C62.36633425 35.06701539 62.36633425 35.06701539 64.3125 40.53125 C64.62004084 44.1704833 64.75063606 46.62340986 63.375 50.0625 C59.96846203 54.0367943 55.90537353 56.73264841 51.3515625 59.24609375 C50.35817871 59.79789307 49.36479492 60.34969238 48.34130859 60.91821289 C47.27992676 61.50207764 46.21854492 62.08594238 45.125 62.6875 C42.85913032 63.94487167 40.59351064 65.20269396 38.328125 66.4609375 C37.18408203 67.09483398 36.04003906 67.72873047 34.86132812 68.38183594 C30.79425079 70.64224237 26.74063079 72.92562827 22.69165039 75.21826172 C20.8150621 76.28042012 18.93664083 77.33934662 17.05639648 78.39501953 C12.0973894 81.18405937 7.18035684 84.02705778 2.30078125 86.953125 C1.27742676 87.55697021 0.25407227 88.16081543 -0.80029297 88.78295898 C-2.74869265 89.93402766 -4.68736269 91.10179787 -6.61376953 92.28930664 C-12.52215125 95.75026766 -17.60577147 97.60920581 -24.5 96.25 C-28.11051862 94.32635548 -30.1843124 92.1970628 -31.5 88.25 C-31.61702236 85.43722836 -31.67811032 82.64831835 -31.69287109 79.8347168 C-31.70104858 78.97584869 -31.70922607 78.11698059 -31.71765137 77.23208618 C-31.74247841 74.38780411 -31.75901373 71.54357183 -31.7734375 68.69921875 C-31.77876118 67.72756083 -31.78408485 66.7559029 -31.78956985 65.7548008 C-31.81628863 60.61266494 -31.83566837 55.47055326 -31.85009766 50.32836914 C-31.86344367 46.07294248 -31.89131037 41.81799456 -31.93212891 37.56274414 C-31.98142243 32.42397548 -32.00621456 27.28564151 -32.01332474 22.1466465 C-32.02004006 20.1894233 -32.03526942 18.23220991 -32.05921555 16.27512169 C-32.09084294 13.53405574 -32.09090777 10.79466739 -32.08349609 8.0534668 C-32.09990143 7.24753586 -32.11630676 6.44160492 -32.13320923 5.61125183 C-32.08837319 1.5538621 -31.71793368 -0.98699598 -29.13931274 -4.20646667 C-19.8152351 -13.19217792 -9.2631509 -5.29322908 0 0 Z M-22.59265137 -0.76171875 C-25.47305867 2.27630444 -25.05833648 5.46751501 -25.01757812 9.4375 C-25.0245874 10.27192627 -25.03159668 11.10635254 -25.03881836 11.96606445 C-25.05644159 14.72771359 -25.04476056 17.48834022 -25.03125 20.25 C-25.03394368 22.16666867 -25.03782506 24.08333601 -25.04284668 26 C-25.04874759 30.01836142 -25.04015972 34.03636737 -25.02148438 38.0546875 C-24.99869449 43.21008599 -25.0118144 48.36465161 -25.03577423 53.52001953 C-25.05021621 57.47825415 -25.04563358 61.43629073 -25.03526306 65.39453125 C-25.03259135 67.29557391 -25.03588112 69.19663446 -25.04518127 71.09765625 C-25.05532064 73.75308985 -25.03988322 76.40716761 -25.01757812 79.0625 C-25.02567505 79.85116455 -25.03377197 80.6398291 -25.04211426 81.45239258 C-24.9895269 84.82512055 -24.95782811 86.7423225 -22.65000916 89.30142212 C-20.42736295 90.5342128 -20.42736295 90.5342128 -17.58227539 89.61474609 C-14.68581906 88.33227553 -11.93931353 86.97473953 -9.18359375 85.4140625 C-8.18312012 84.85066162 -7.18264648 84.28726074 -6.15185547 83.70678711 C-4.56074951 82.80005249 -4.56074951 82.80005249 -2.9375 81.875 C-1.82777832 81.24795166 -0.71805664 80.62090332 0.42529297 79.97485352 C3.78711431 78.07280202 7.14437702 76.16296217 10.5 74.25 C11.90983154 73.4468335 11.90983154 73.4468335 13.34814453 72.62744141 C16.78286079 70.66916689 20.2168388 68.70974329 23.64428711 66.73876953 C28.34569178 64.03716558 33.06598441 61.37557847 37.8125 58.75390625 C38.8648584 58.16939697 39.9172168 57.5848877 41.00146484 56.98266602 C43.03943586 55.8521767 45.08127682 54.72862774 47.12744141 53.61303711 C48.04702637 53.10135986 48.96661133 52.58968262 49.9140625 52.0625 C50.7282666 51.61519531 51.5424707 51.16789062 52.38134766 50.70703125 C54.73564285 49.08794462 56.11207409 47.75144643 57.5 45.25 C57.55919399 43.13172786 57.55919399 43.13172786 56.5 41.25 C50.33823341 35.71854086 41.96850499 32.07354435 34.75 28.125 C32.33862749 26.79777404 29.92899416 25.46740763 27.51953125 24.13671875 C26.92125015 23.8066835 26.32296906 23.47664825 25.70655823 23.13661194 C20.25255794 20.12369576 14.83979687 17.04189259 9.4375 13.9375 C2.7435242 10.0992851 -3.95705739 6.27399781 -10.6875 2.5 C-11.82940796 1.85357544 -11.82940796 1.85357544 -12.99438477 1.1940918 C-17.63040322 -1.73743806 -17.63040322 -1.73743806 -22.59265137 -0.76171875 Z " fill="#F0F0F0" transform="translate(95.5,55.75)"/>
<path d="M0 0 C1.20183475 2.57750095 2.38656886 5.16071162 3.5625 7.75 C3.90474609 8.47960938 4.24699219 9.20921875 4.59960938 9.9609375 C4.91865234 10.66992188 5.23769531 11.37890625 5.56640625 12.109375 C5.86490479 12.75874023 6.16340332 13.40810547 6.47094727 14.07714844 C7.13538449 16.49205735 6.97122886 17.69664046 6 20 C4.48461914 21.32104492 4.48461914 21.32104492 2.53515625 22.48046875 C1.82230469 22.9172998 1.10945313 23.35413086 0.375 23.80419922 C-0.388125 24.26068848 -1.15125 24.71717773 -1.9375 25.1875 C-14.07422904 32.78305277 -22.29749337 40.93071795 -30 53 C-30.55171875 53.86109375 -31.1034375 54.7221875 -31.671875 55.609375 C-32.79905621 57.39513399 -33.90312664 59.19546641 -35 61 C-41.65053906 60.54655415 -48.33379744 58.53914229 -54 55 C-55.29401893 51.96887395 -55.21380413 50.57431905 -54.06640625 47.4921875 C-44.84149468 31.43844529 -22.00870606 -2.26257726 0 0 Z " fill="#F0F0F0" transform="translate(63,8)"/>
<path d="M0 0 C2.47153862 1.05082424 3.56893111 1.94810663 5.296875 3.9765625 C17.98638954 17.35273909 34.95170886 23.28194268 52.296875 27.9765625 C53.50752908 32.37584072 53.08078531 36.28533588 52.421875 40.7265625 C52.28458984 41.75330078 52.28458984 41.75330078 52.14453125 42.80078125 C51.43647393 47.83696357 51.43647393 47.83696357 50.296875 48.9765625 C31.68029754 50.83822025 11.68431036 39.36009504 -2.19921875 28.1953125 C-3.37071259 27.23082832 -4.53875382 26.26213358 -5.703125 25.2890625 C-6.24332275 24.83764893 -6.78352051 24.38623535 -7.34008789 23.92114258 C-10.51911164 21.19161707 -13.46287741 18.53295555 -15.703125 14.9765625 C-15.8125 12.5 -15.8125 12.5 -14.703125 9.9765625 C-12.81777434 7.96976287 -11.06817151 6.31877884 -8.953125 4.6015625 C-8.4271875 4.13878906 -7.90125 3.67601562 -7.359375 3.19921875 C-4.84806141 1.11681763 -3.31670887 -0.02875759 0 0 Z " fill="#F0F0F0" transform="translate(38.703125,150.0234375)"/>
<path d="M0 0 C1.84765625 0.10839844 1.84765625 0.10839844 4.0625 0.609375 C4.85914063 0.78726563 5.65578125 0.96515625 6.4765625 1.1484375 C7.72566406 1.44621094 7.72566406 1.44621094 9 1.75 C10.24910156 2.02457031 10.24910156 2.02457031 11.5234375 2.3046875 C17.73102679 3.73102679 17.73102679 3.73102679 20 6 C19.98754883 7.82788086 19.98754883 7.82788086 19.64453125 10.02734375 C17.22762737 27.95539963 19.34916674 44.17889556 27.14453125 60.546875 C28 63 28 63 28.02734375 65.0625 C26.40104632 68.12958565 23.6508913 69.53612549 20.75 71.25 C20.17636719 71.61351562 19.60273438 71.97703125 19.01171875 72.3515625 C16.54466016 73.84640893 14.16724641 74.95293065 11.390625 75.734375 C7.87175253 74.65341418 6.89777919 72.46328382 5.13818359 69.33496094 C3.36146258 65.69005322 2.03015449 61.98813397 0.8125 58.125 C0.56564453 57.38636719 0.31878906 56.64773437 0.06445312 55.88671875 C-3.31450624 45.48853445 -4.31982242 35.87052734 -4.25 24.9375 C-4.25773438 23.72255859 -4.26546875 22.50761719 -4.2734375 21.25585938 C-4.23653924 4.23653924 -4.23653924 4.23653924 0 0 Z " fill="#E3E3E3" transform="translate(4,75)"/>
<path d="M0 0 C1.16708496 0.00563965 2.33416992 0.0112793 3.53662109 0.01708984 C19.74028155 0.24448594 42.00698095 3.72498015 54.5625 15.3125 C55.625 17.5390625 55.625 17.5390625 55.5625 20.3125 C54.20859917 22.97665192 52.45231874 25.26865671 50.625 27.625 C50.14353516 28.27017578 49.66207031 28.91535156 49.16601562 29.58007812 C47.97825708 31.16767618 46.77211388 32.74149006 45.5625 34.3125 C41.54489008 33.78645323 38.5260068 32.98069599 35 31 C25.68072829 26.13593232 15.34307242 23.1227244 4.796875 23.25 C3.74242188 23.25773437 2.68796875 23.26546875 1.6015625 23.2734375 C-0.02652344 23.29277344 -0.02652344 23.29277344 -1.6875 23.3125 C-3.85932603 23.33793122 -6.03120908 23.35899079 -8.203125 23.375 C-9.15993164 23.38660156 -10.11673828 23.39820312 -11.10253906 23.41015625 C-13.4375 23.3125 -13.4375 23.3125 -15.4375 22.3125 C-17.49826475 15.78989598 -18.91509875 9.15808208 -18.4375 2.3125 C-12.44807279 -0.32958476 -6.42017723 -0.03201399 0 0 Z " fill="#9A9EA4" transform="translate(99.4375,-0.3125)"/>
<path d="M0 0 C11.19595431 5.3180783 19.3997466 24.9123159 23.44433594 36.12475586 C27.23469228 47.30685089 28.8822335 58.286588 28.34375 70.11328125 C24.86460059 70.14215939 21.38548169 70.16003812 17.90625 70.17578125 C16.41641602 70.18834961 16.41641602 70.18834961 14.89648438 70.20117188 C13.95224609 70.20439453 13.00800781 70.20761719 12.03515625 70.2109375 C11.16060791 70.21617432 10.28605957 70.22141113 9.38500977 70.22680664 C7.34375 70.11328125 7.34375 70.11328125 6.34375 69.11328125 C6.04831732 67.10476409 5.75815202 65.09532351 5.49536133 63.08227539 C3.21239507 46.03974329 -2.06196717 31.63002208 -13.71875 18.61328125 C-15.65625 16.11328125 -15.65625 16.11328125 -15.43652344 14.14770508 C-14.11868967 10.71168857 -11.45849407 8.36214048 -8.90625 5.80078125 C-8.11734375 4.95676758 -8.11734375 4.95676758 -7.3125 4.09570312 C-3.40555162 0.14523676 -3.40555162 0.14523676 0 0 Z " fill="#F0F0F0" transform="translate(171.65625,29.88671875)"/>
<path d="M0 0 C3.4360165 1.31783376 5.7855646 3.97802937 8.34692383 6.53027344 C8.90959961 7.05621094 9.47227539 7.58214844 10.05200195 8.12402344 C13.96816933 11.99705066 13.96816933 11.99705066 14.25317383 15.36621094 C12.58049128 18.67940906 10.1674709 20.53182733 7.22192383 22.65527344 C6.63515869 23.0887207 6.04839355 23.52216797 5.44384766 23.96875 C-12.81818891 37.23862301 -33.18436546 44.81752924 -55.96557617 43.78027344 C-55.99445431 40.30112403 -56.01233304 36.82200513 -56.02807617 33.34277344 C-56.03645508 32.34955078 -56.04483398 31.35632813 -56.0534668 30.33300781 C-56.05668945 29.38876953 -56.05991211 28.44453125 -56.06323242 27.47167969 C-56.06846924 26.59713135 -56.07370605 25.72258301 -56.07910156 24.8215332 C-55.96557617 22.78027344 -55.96557617 22.78027344 -54.96557617 21.78027344 C-52.95705901 21.48484075 -50.94761843 21.19467546 -48.93457031 20.93188477 C-31.89203821 18.64891851 -17.482317 13.37455627 -4.46557617 1.71777344 C-1.96557617 -0.21972656 -1.96557617 -0.21972656 0 0 Z " fill="#E3E3E3" transform="translate(155.965576171875,156.2197265625)"/>
</svg>
