<svg width="18" height="20" viewBox="0 0 18 20" fill="none" xmlns="http://www.w3.org/2000/svg">
<path d="M5.625 14.1055C6.55664 14.1055 7.3125 14.9033 7.3125 15.8867V16.4805L9.86133 14.4617C10.1531 14.2316 10.5082 14.1055 10.8738 14.1055H15.75C16.0594 14.1055 16.3125 13.8383 16.3125 13.5117V2.82422C16.3125 2.49766 16.0594 2.23047 15.75 2.23047H2.25C1.94062 2.23047 1.6875 2.49766 1.6875 2.82422V13.5117C1.6875 13.8383 1.94062 14.1055 2.25 14.1055H5.625ZM7.3125 18.707L7.30547 18.7145L7.12617 18.8555L6.525 19.3305C6.35625 19.4641 6.12773 19.4863 5.93438 19.3861C5.74102 19.2859 5.625 19.0818 5.625 18.8555V18.065V17.8275V17.8164V17.668V15.8867H3.9375H2.25C1.00898 15.8867 0 14.8217 0 13.5117V2.82422C0 1.51426 1.00898 0.449219 2.25 0.449219H15.75C16.991 0.449219 18 1.51426 18 2.82422V13.5117C18 14.8217 16.991 15.8867 15.75 15.8867H10.8738L7.3125 18.707Z" fill="#0A1C40"/>
</svg>
