<svg width="13" height="13" viewBox="0 0 13 13" fill="none" xmlns="http://www.w3.org/2000/svg">
<g clip-path="url(#clip0_5849_33873)">
<path d="M9.5418 6.98721C9.12539 6.80948 8.64297 6.92628 8.35606 7.27667L7.51309 8.30753C6.34512 7.6296 5.37012 6.6546 4.69219 5.48663L5.72051 4.6462C6.0709 4.35928 6.19023 3.87686 6.00996 3.46046L4.79121 0.616707C4.60078 0.169832 4.1209 -0.0789965 3.64609 0.022566L0.802344 0.631941C0.335156 0.730964 0 1.14483 0 1.62471C0 7.49503 4.44844 12.3294 10.1588 12.9362C10.4076 12.9616 10.6564 12.9819 10.9104 12.9921H10.9129C11.0678 12.9972 11.2201 13.0023 11.375 13.0023C11.8549 13.0023 12.2688 12.6671 12.3678 12.1999L12.9771 9.35616C13.0787 8.88135 12.8299 8.40147 12.383 8.21104L9.53926 6.99229L9.5418 6.98721ZM11.21 11.781C5.7332 11.6921 1.30762 7.26651 1.22129 1.78975L3.74004 1.24893L4.83184 3.79815L3.92031 4.54464C3.4582 4.92296 3.33887 5.58057 3.63848 6.09854C4.42305 7.45186 5.55039 8.57921 6.90371 9.36378C7.42168 9.66339 8.0793 9.54405 8.45762 9.08194L9.2041 8.17042L11.7533 9.26221L11.21 11.781Z" fill="black"/>
</g>
<defs>
<clipPath id="clip0_5849_33873">
<rect width="13" height="13" fill="white"/>
</clipPath>
</defs>
</svg>
