<svg width="647" height="261" viewBox="0 0 647 261" fill="none" xmlns="http://www.w3.org/2000/svg">
<g style="mix-blend-mode:multiply" opacity="0.8">
<path d="M536.158 180.289H544.979C549.272 180.289 553.39 181.995 556.425 185.03C559.461 188.066 561.167 192.183 561.167 196.477C561.173 199.189 560.498 201.86 559.203 204.244C557.908 206.627 556.034 208.647 553.755 210.118L535.567 221.826L536.158 180.289Z" fill="#59A562"/>
<path d="M534.94 223.884L535.554 179.152H545.501C549.225 179.173 552.844 180.392 555.82 182.631C558.797 184.869 560.972 188.008 562.025 191.58C563.078 195.152 562.951 198.969 561.664 202.464C560.377 205.959 557.998 208.945 554.879 210.982L534.94 223.884ZM537.851 181.426L537.328 219.678L553.708 209.118C556.436 207.355 558.521 204.756 559.65 201.711C560.78 198.666 560.894 195.337 559.976 192.221C559.058 189.106 557.156 186.371 554.556 184.425C551.955 182.48 548.794 181.427 545.546 181.426H537.851Z" fill="#463E3B"/>
<path d="M537.669 185.973H543.558C546.419 185.973 549.163 187.109 551.186 189.132C553.209 191.155 554.345 193.899 554.345 196.761C554.35 198.569 553.899 200.35 553.035 201.939C552.171 203.529 550.921 204.875 549.4 205.855L537.294 213.653L537.669 185.973Z" fill="white"/>
<path d="M536.077 215.733L536.498 184.836H543.5C546.076 184.836 548.583 185.669 550.645 187.212C552.708 188.755 554.215 190.925 554.942 193.396C555.669 195.867 555.576 198.507 554.678 200.92C553.779 203.334 552.123 205.393 549.957 206.787L536.077 215.733ZM538.794 187.109L538.465 211.527L548.786 204.877C550.54 203.749 551.881 202.083 552.609 200.128C553.337 198.174 553.412 196.036 552.823 194.036C552.234 192.035 551.013 190.279 549.343 189.03C547.673 187.782 545.643 187.108 543.557 187.109H538.794Z" fill="#463E3B"/>
<path d="M529.337 248.496C550.367 232.012 544.683 167.785 544.683 167.785H472.498L446.353 218.94L452.037 249.257L529.337 248.496Z" fill="#76D98C"/>
<path d="M538.271 167.215H535.589C535.589 167.215 541.273 231.442 520.242 247.925L450.9 248.607V248.687L528.2 247.925C545.535 234.284 544.717 188.302 543.899 172.546C543.809 171.111 543.179 169.762 542.135 168.773C541.091 167.783 539.71 167.226 538.271 167.215Z" fill="#6DCC7E"/>
<path d="M530.041 248.257L528.643 246.472C545.524 233.24 544.626 186.815 543.944 172.889C543.88 171.513 543.287 170.215 542.29 169.264C541.293 168.313 539.968 167.784 538.59 167.785H472.498V165.512H538.59C540.549 165.512 542.434 166.267 543.852 167.62C545.27 168.972 546.113 170.818 546.206 172.776C547.093 190.964 547.298 234.729 530.041 248.257Z" fill="#463E3B"/>
<path d="M190.579 242.812H79.8468L46.5396 209.517L48.1538 207.902L80.779 240.539H190.579V242.812Z" fill="#463E3B"/>
<path d="M1.79712 247.355H645.718V259.86H1.79712V247.355Z" fill="#EA9178"/>
<path d="M2.72974 248.074H646.651V250.223H2.72974V248.074Z" fill="#A76C59"/>
<path opacity="0.2" d="M639.943 246.277V256.565H5.9231V246.277H0.966797V258.782H644.899V246.277H639.943Z" fill="white"/>
<path d="M646.855 261.001H0.6604V246.223H646.855V261.001ZM2.93393 258.727H644.582V248.496H2.93393V258.727Z" fill="#463E3B"/>
<g opacity="0.15">
<path d="M71.2202 66.6142H0.740723V45.0156H71.2202V66.6142ZM3.01425 64.3407H68.9467V47.2892H3.01425V64.3407Z" fill="#463E3B"/>
<path d="M139.426 66.6142H68.9468V45.0156H139.426V66.6142ZM71.2203 64.3407H137.153V47.2892H71.2203V64.3407Z" fill="#463E3B"/>
<path d="M104.187 47.29H33.707V25.6914H104.187V47.29ZM35.9806 45.0164H101.913V27.9649H35.9806V45.0164Z" fill="#463E3B"/>
</g>
<g opacity="0.15">
<path d="M498.644 68.8837H428.165V47.2852H498.644V68.8837ZM430.438 66.6102H496.371V49.5587H430.438V66.6102Z" fill="#463E3B"/>
<path d="M566.85 68.8837H496.371V47.2852H566.85V68.8837ZM498.644 66.6102H564.577V49.5587H498.644V66.6102Z" fill="#463E3B"/>
<path d="M531.611 49.5595H461.131V27.9609H531.611V49.5595ZM463.405 47.286H529.337V30.2345H463.405V47.286Z" fill="#463E3B"/>
</g>
<g opacity="0.15">
<path d="M579.355 135.954H508.875V114.355H579.355V135.954ZM511.149 133.68H577.081V116.629H511.149V133.68Z" fill="#463E3B"/>
<path d="M630.509 156.415H560.03V134.816H630.509V156.415ZM562.303 154.141H628.236V137.09H562.303V154.141Z" fill="#463E3B"/>
</g>
<g opacity="0.15">
<path d="M134.879 178.017H64.3997V156.418H134.879V178.017ZM66.6732 175.743H132.606V158.692H66.6732V175.743Z" fill="#463E3B"/>
<path d="M186.034 198.477H115.554V176.879H186.034V198.477ZM117.828 196.204H183.76V179.152H117.828V196.204Z" fill="#463E3B"/>
</g>
<path d="M31.9551 166.488C47.9205 166.488 60.8631 153.545 60.8631 137.58C60.8631 121.614 47.9205 108.672 31.9551 108.672C15.9897 108.672 3.04712 121.614 3.04712 137.58C3.04712 153.545 15.9897 166.488 31.9551 166.488Z" fill="#E8F0F9"/>
<path d="M31.9557 108.672C28.2436 108.665 24.565 109.375 21.1223 110.764C28.2071 108.964 35.7107 109.914 42.1235 113.422C48.5363 116.931 53.3825 122.738 55.6871 129.675C57.9918 136.612 57.584 144.164 54.5456 150.813C51.5073 157.461 46.0639 162.713 39.3106 165.51C46.0678 163.686 51.934 159.472 55.8211 153.651C59.7081 147.831 61.3523 140.798 60.4486 133.857C59.545 126.916 56.1548 120.539 50.9068 115.908C45.6589 111.276 38.9094 108.706 31.9102 108.672H31.9557Z" fill="#BCD9EA"/>
<path d="M10.9927 137.012C10.9937 129.934 13.5912 123.103 18.2927 117.812C22.9943 112.522 29.4733 109.14 36.5018 108.308C32.4479 107.83 28.3387 108.216 24.4447 109.441C20.5507 110.665 16.9602 112.7 13.9094 115.412C10.8587 118.125 8.41693 121.452 6.74484 125.176C5.07275 128.9 4.20825 132.935 4.20825 137.017C4.20825 141.099 5.07275 145.135 6.74484 148.859C8.41693 152.583 10.8587 155.91 13.9094 158.622C16.9602 161.334 20.5507 163.37 24.4447 164.594C28.3387 165.819 32.4479 166.204 36.5018 165.726C29.4713 164.894 22.9908 161.511 18.289 156.218C13.5871 150.925 10.991 144.091 10.9927 137.012Z" fill="white"/>
<path d="M31.9563 167.636C26.016 167.627 20.2116 165.858 15.2768 162.551C10.3419 159.244 6.49808 154.548 4.23103 149.058C1.96399 143.567 1.37549 137.527 2.5399 131.702C3.70431 125.877 6.56938 120.528 10.773 116.331C14.9767 112.133 20.3302 109.276 26.157 108.121C31.9839 106.965 38.0226 107.563 43.5099 109.838C48.9972 112.114 53.6869 115.965 56.9862 120.904C60.2856 125.844 62.0465 131.651 62.0465 137.592C62.0375 145.565 58.8629 153.209 53.2206 158.843C47.5782 164.476 39.9298 167.639 31.9563 167.636ZM31.9563 109.809C26.4661 109.818 21.1018 111.454 16.541 114.511C11.9803 117.567 8.42789 121.907 6.33259 126.981C4.23729 132.056 3.69315 137.638 4.76892 143.022C5.84468 148.406 8.49208 153.35 12.3766 157.229C16.2612 161.109 21.2085 163.751 26.5936 164.82C31.9787 165.889 37.5599 165.338 42.632 163.236C47.704 161.135 52.0394 157.577 55.0903 153.013C58.1412 148.448 59.7707 143.082 59.773 137.592C59.767 130.219 56.8333 123.151 51.6169 117.941C46.4006 112.731 39.3288 109.806 31.9563 109.809Z" fill="#463E3B"/>
<path d="M21.4413 121.926H42.4715C43.5146 121.926 44.5151 122.34 45.2527 123.078C45.9903 123.815 46.4047 124.816 46.4047 125.859V136.374C46.4047 140.209 44.8813 143.887 42.1695 146.599C39.4578 149.31 35.78 150.834 31.945 150.834C28.1101 150.834 24.4322 149.31 21.7205 146.599C19.0088 143.887 17.4854 140.209 17.4854 136.374V125.859C17.4853 125.341 17.5878 124.827 17.7869 124.349C17.986 123.87 18.2777 123.435 18.6454 123.07C19.013 122.704 19.4493 122.415 19.9291 122.219C20.409 122.022 20.9229 121.923 21.4413 121.926Z" fill="#463E3B"/>
<path d="M30.8181 144.809H33.0916V192.996H30.8181V144.809Z" fill="#463E3B"/>
<path d="M36.5371 191.523H40.5613V192.092H36.5371V191.523Z" fill="#EA2424"/>
<path d="M35.9421 193.863L36.1897 193.352L39.8121 195.104L39.5645 195.616L35.9421 193.863Z" fill="#EA2424"/>
<path d="M34.2747 195.348L34.8115 195.161L36.1336 198.962L35.5967 199.148L34.2747 195.348Z" fill="#EA2424"/>
<path d="M40.2205 210.145H44.2446V210.713H40.2205V210.145Z" fill="#EA2424"/>
<path d="M40.9666 207.133L41.2141 206.621L44.8365 208.374L44.589 208.886L40.9666 207.133Z" fill="#EA2424"/>
<path d="M44.6655 203.254L45.2024 203.067L46.5244 206.868L45.9876 207.055L44.6655 203.254Z" fill="#EA2424"/>
<path d="M166.492 1.81641H472.214C475.642 1.81641 478.929 3.17815 481.353 5.60206C483.777 8.02597 485.139 11.3135 485.139 14.7414V231.443H153.567V14.7414C153.567 13.0441 153.901 11.3634 154.551 9.79524C155.2 8.22711 156.152 6.80226 157.352 5.60206C158.553 4.40186 159.977 3.44981 161.545 2.80027C163.114 2.15072 164.794 1.81641 166.492 1.81641Z" fill="#E8F0F9"/>
<path d="M163.298 218.699H474.772V221.825H163.298V218.699Z" fill="#BCD9EA"/>
<path d="M472.214 1.81641H166.492C164.794 1.81641 163.114 2.15072 161.545 2.80027C159.977 3.44981 158.553 4.40186 157.352 5.60206C156.152 6.80226 155.2 8.22711 154.551 9.79524C153.901 11.3634 153.567 13.0441 153.567 14.7414V21.562C153.567 19.8647 153.901 18.184 154.551 16.6158C155.2 15.0477 156.152 13.6229 157.352 12.4227C158.553 11.2225 159.977 10.2704 161.545 9.62086C163.114 8.97132 164.794 8.637 166.492 8.637H472.214C475.642 8.637 478.929 9.99874 481.353 12.4227C483.777 14.8466 485.139 18.1341 485.139 21.562V14.7414C485.139 11.3135 483.777 8.02597 481.353 5.60206C478.929 3.17815 475.642 1.81641 472.214 1.81641Z" fill="white"/>
<path d="M486.059 232.58H152.248V14.7415C152.251 11.013 153.733 7.43806 156.37 4.80162C159.006 2.16517 162.581 0.682698 166.31 0.679688L472.031 0.679688C475.754 0.691714 479.32 2.17817 481.949 4.81364C484.578 7.44911 486.056 11.0189 486.059 14.7415V232.58ZM154.499 230.306H483.786V14.7415C483.783 11.6219 482.544 8.63036 480.342 6.42126C478.139 4.21216 475.151 2.96524 472.031 2.95322H166.31C163.184 2.95623 160.187 4.19917 157.977 6.40925C155.767 8.61932 154.524 11.616 154.521 14.7415L154.499 230.306Z" fill="#463E3B"/>
<path d="M163.615 22.2773H473.953V218.938H163.615V22.2773Z" fill="white"/>
<path opacity="0.1" d="M164.752 22.2773H473.953V27.9612H164.752V22.2773Z" fill="#463E3B"/>
<path d="M474.692 220.075H163.615V21.1406H474.692V220.075ZM165.866 217.801H472.418V23.4142H165.889L165.866 217.801Z" fill="#463E3B"/>
<path d="M107.596 231.445H529.905V237.879C529.905 240.695 528.786 243.396 526.795 245.387C524.804 247.378 522.104 248.497 519.288 248.497H120.942C117.403 248.497 114.008 247.091 111.505 244.588C109.002 242.085 107.596 238.691 107.596 235.151V231.445Z" fill="#E8F0F9"/>
<path d="M108.813 231.445H531.11V238.266H108.813V231.445Z" fill="#BCD9EA"/>
<path d="M517.07 249.63H121.226C117.416 249.627 113.763 248.112 111.069 245.418C108.375 242.724 106.86 239.071 106.857 235.261V230.305H531.439V235.261C531.436 239.071 529.921 242.724 527.227 245.418C524.533 248.112 520.88 249.627 517.07 249.63ZM109.142 232.578V235.261C109.145 238.466 110.419 241.539 112.684 243.806C114.949 246.074 118.021 247.35 121.226 247.356H517.07C520.277 247.353 523.352 246.078 525.62 243.81C527.887 241.543 529.163 238.468 529.166 235.261V232.578H109.142Z" fill="#463E3B"/>
<path d="M316.228 14.1973C317.257 14.1973 318.092 13.3627 318.092 12.333C318.092 11.3034 317.257 10.4688 316.228 10.4688C315.198 10.4688 314.364 11.3034 314.364 12.333C314.364 13.3627 315.198 14.1973 316.228 14.1973Z" fill="#FF4E00"/>
<path d="M316.228 14.7638C315.747 14.7638 315.276 14.6211 314.876 14.3538C314.476 14.0865 314.164 13.7066 313.98 13.2621C313.796 12.8176 313.748 12.3284 313.842 11.8565C313.936 11.3846 314.167 10.9512 314.508 10.611C314.848 10.2707 315.281 10.039 315.753 9.94518C316.225 9.85132 316.714 9.89949 317.159 10.0836C317.603 10.2677 317.983 10.5795 318.251 10.9796C318.518 11.3796 318.661 11.85 318.661 12.3311C318.661 12.9763 318.404 13.5951 317.948 14.0513C317.492 14.5075 316.873 14.7638 316.228 14.7638ZM316.228 11.0352C315.972 11.0352 315.721 11.1112 315.508 11.2536C315.295 11.396 315.129 11.5984 315.031 11.8352C314.932 12.072 314.907 12.3326 314.957 12.5839C315.007 12.8353 315.13 13.0662 315.311 13.2475C315.493 13.4287 315.724 13.5521 315.975 13.6021C316.226 13.6521 316.487 13.6265 316.724 13.5284C316.961 13.4303 317.163 13.2642 317.305 13.0511C317.448 12.838 317.524 12.5874 317.524 12.3311C317.524 11.9874 317.387 11.6578 317.144 11.4148C316.901 11.1717 316.572 11.0352 316.228 11.0352Z" fill="#463E3B"/>
<path d="M342.656 239.786H296.504C290.674 239.802 284.961 238.158 280.032 235.046L276.622 232.875L277.861 230.965L281.271 233.136C285.829 236.014 291.113 237.532 296.504 237.513H342.656C349.234 237.562 355.615 235.273 360.663 231.056L362.152 232.772C356.708 237.378 349.787 239.868 342.656 239.786Z" fill="#463E3B"/>
<path d="M118.964 43.3087C119.416 43.3087 119.85 43.1291 120.17 42.8093C120.489 42.4895 120.669 42.0558 120.669 41.6036C120.669 41.1514 120.489 40.7176 120.17 40.3979C119.85 40.0781 119.416 39.8984 118.964 39.8984C118.512 39.8984 118.078 40.0781 117.758 40.3979C117.438 40.7176 117.259 41.1514 117.259 41.6036C117.259 42.0558 117.438 42.4895 117.758 42.8093C118.078 43.1291 118.512 43.3087 118.964 43.3087Z" fill="#E8F0F9"/>
<path opacity="0.35" d="M507.602 159.305C504.861 157.335 502.487 154.899 500.588 152.109C499.664 150.609 499.082 148.925 498.883 147.175C498.652 145.362 498.944 143.52 499.724 141.867C500.137 141.016 500.7 140.246 501.383 139.593C502.033 139.005 502.724 138.465 503.452 137.979C504.794 137.035 506.124 136.103 506.442 134.978C506.76 133.852 506.26 132.636 505.305 131.329C504.281 129.96 503.361 128.516 502.554 127.009C499.398 120.803 498.591 113.665 500.281 106.911C501.093 103.578 502.574 100.446 504.635 97.7032C506.666 94.9866 509.375 92.8504 512.49 91.5078C511.072 92.3548 509.76 93.3659 508.579 94.5202C507.429 95.6769 506.411 96.9579 505.544 98.3398C503.805 101.085 502.594 104.13 501.975 107.32C500.725 113.659 501.646 120.234 504.589 125.986C505.335 127.417 506.191 128.789 507.147 130.09C507.692 130.845 508.132 131.671 508.454 132.545C508.814 133.56 508.814 134.668 508.454 135.683C508.091 136.634 507.478 137.47 506.681 138.104C506.005 138.656 505.295 139.165 504.555 139.627C503.22 140.344 502.092 141.393 501.281 142.674C500.578 144.02 500.26 145.534 500.36 147.05C500.422 148.635 500.829 150.187 501.554 151.597C502.929 154.496 505.385 156.883 507.602 159.305Z" fill="#141414"/>
<path opacity="0.35" d="M516.684 152.21C518.958 149.619 519.299 146.186 518.867 143.116C518.435 140.047 517.025 136.944 515.843 133.761C515.233 132.13 514.754 130.454 514.411 128.748C514.098 127.015 513.999 125.252 514.115 123.496C514.31 120.021 515.411 116.659 517.309 113.742C516.282 116.896 515.801 120.202 515.888 123.518C516.033 126.767 516.737 129.966 517.969 132.976C519.105 136.091 520.458 139.342 520.617 142.957C520.714 144.738 520.451 146.52 519.844 148.198C519.25 149.84 518.142 151.248 516.684 152.21Z" fill="#141414"/>
<path opacity="0.35" d="M526.915 126.066C529.188 123.474 529.529 120.041 529.097 116.972C528.665 113.902 527.256 110.799 526.074 107.616C525.463 105.986 524.984 104.31 524.641 102.603C524.329 100.871 524.23 99.1072 524.346 97.3511C524.541 93.8768 525.642 90.5141 527.54 87.5977C526.513 90.7516 526.032 94.0579 526.119 97.3738C526.264 100.623 526.968 103.822 528.199 106.832C529.336 109.946 530.689 113.198 530.848 116.813C530.945 118.594 530.682 120.376 530.075 122.053C529.481 123.696 528.373 125.103 526.915 126.066Z" fill="#141414"/>
</g>
</svg>
