<svg width="50" height="70" viewBox="0 0 50 70" fill="none" xmlns="http://www.w3.org/2000/svg">
<g clip-path="url(#clip0_7833_25998)">
<path d="M12.6424 44.2163C14.6753 42.1835 14.6753 38.8752 12.6424 36.8424C11.6574 35.8578 10.3482 35.3152 8.95547 35.3152C8.15037 35.3152 7.37366 35.4973 6.6714 35.8407C4.19503 32.2978 2.89069 28.1518 2.89069 23.791C2.89069 12.6304 11.6092 3.38485 22.7386 2.74206C23.4955 2.69813 24.073 2.04944 24.0296 1.29309C23.9857 0.536194 23.337 -0.0396446 22.5806 0.00213709C10.0006 0.729032 0.146484 11.1782 0.146484 23.791C0.146484 28.823 1.68437 33.6027 4.59999 37.6625C3.2678 39.6852 3.49063 42.4385 5.2685 44.2163C6.25359 45.2009 7.56275 45.7435 8.95547 45.7435C10.3482 45.7435 11.6574 45.2009 12.6424 44.2163ZM7.20867 38.7831C7.69024 38.3015 8.32285 38.0605 8.95547 38.0605C9.58756 38.0605 10.2202 38.3015 10.7017 38.7831C11.6649 39.7457 11.6649 41.313 10.7017 42.2756C9.73861 43.2388 8.1718 43.2388 7.20867 42.2756C6.24609 41.313 6.24609 39.7462 7.20867 38.7831Z" fill="#007AFF"/>
<path d="M45.1321 47.5399C44.2648 47.5399 43.4495 47.766 42.7419 48.1624C42.1147 46.1735 40.2527 44.7272 38.0592 44.7272C36.6713 44.7272 35.4162 45.3062 34.5227 46.2351C34.2747 45.9779 33.9988 45.7481 33.7005 45.5494C36.863 44.1336 39.709 42.0306 42.0118 39.3668C45.7475 35.044 47.805 29.5127 47.805 23.7924C47.805 18.763 46.2671 13.9806 43.3521 9.92027C44.6843 7.89761 44.4614 5.14483 42.683 3.36643C40.6502 1.33359 37.3424 1.33359 35.3091 3.36643C33.2762 5.39927 33.2762 8.70753 35.3091 10.7404C36.3258 11.7571 37.6606 12.2654 38.996 12.2654C39.7786 12.2654 40.5602 12.0892 41.2785 11.7399C43.7559 15.2839 45.0608 19.4331 45.0608 23.7924C45.0608 33.7182 38.3227 42.1083 28.8216 44.3184V36.9327C34.2629 34.924 37.9804 29.6643 37.9804 23.7924C37.9804 16.0708 31.6982 9.7885 23.976 9.7885C16.2544 9.7885 9.97218 16.0702 9.97218 23.7924C9.97218 26.8397 10.9348 29.7377 12.755 32.1717C14.3427 34.2946 16.5394 35.9433 19.004 36.884V57.0672L17.2802 54.2395C15.8318 51.8617 12.808 51.0903 10.397 52.482C8.10379 53.8061 7.20923 56.7116 8.3668 59.1081L13.4851 69.448C13.7245 69.9317 14.2109 70.2119 14.716 70.2119C14.9206 70.2119 15.1279 70.1664 15.3235 70.0694C16.0027 69.733 16.2807 68.9097 15.9448 68.231L10.8319 57.9029C10.3022 56.8053 10.7135 55.4683 11.7693 54.8587C12.8605 54.2288 14.2816 54.5914 14.9372 55.6676L19.2043 62.6692C19.5247 63.1942 20.1551 63.4422 20.7471 63.2761C21.339 63.1101 21.7482 62.5701 21.7482 61.9546V30.4726C21.7482 29.2792 22.7194 28.3085 23.9128 28.3085C25.1063 28.3085 26.0774 29.2792 26.0774 30.4726V35.9C26.0769 35.9096 26.0774 35.9192 26.0774 35.9294V56.5321C26.0774 57.2901 26.6913 57.904 27.4493 57.904C28.2072 57.904 28.8216 57.2901 28.8216 56.5321V49.636C28.8216 48.4425 29.7923 47.4714 30.9857 47.4714C32.1792 47.4714 33.1503 48.4425 33.1503 49.636V57.0314C33.1503 57.7893 33.7648 58.4037 34.5222 58.4037C35.2801 58.4037 35.8946 57.7893 35.8946 57.0314V49.636C35.8946 48.4425 36.8657 47.4714 38.0592 47.4714C39.2526 47.4714 40.2232 48.4425 40.2232 49.636V57.124C40.2232 57.882 40.8377 58.4964 41.5956 58.4964C42.3536 58.4964 42.9675 57.882 42.9675 57.124V52.4488C42.9675 51.2553 43.9386 50.2841 45.1321 50.2841C46.3255 50.2841 47.2967 51.2553 47.2967 52.4488V68.839C47.2967 69.597 47.9106 70.2114 48.6685 70.2114C49.4265 70.2114 50.0409 69.597 50.0409 68.839V52.4488C50.0409 49.742 47.8388 47.5399 45.1321 47.5399ZM37.2498 8.8002C36.2867 7.83708 36.2867 6.27026 37.2498 5.30714C37.7313 4.82558 38.3634 4.58506 38.996 4.58506C39.6287 4.58506 40.2613 4.82558 40.7428 5.30714C41.7054 6.27026 41.7054 7.83708 40.7428 8.8002C39.7797 9.76279 38.2124 9.76279 37.2498 8.8002ZM12.7164 23.7924C12.7164 17.5835 17.7677 12.5322 23.9766 12.5322C30.1849 12.5322 35.2362 17.5835 35.2362 23.7924C35.2362 28.1644 32.6741 32.115 28.8216 33.9582V30.4726C28.8216 29.7023 28.6427 28.9728 28.3246 28.323C29.5416 27.1499 30.261 25.5145 30.261 23.7924C30.261 20.3266 27.4418 17.5074 23.9766 17.5074C20.5108 17.5074 17.6916 20.3266 17.6916 23.7924C17.6916 25.4642 18.3725 27.0706 19.5429 28.2416C19.1995 28.9112 19.004 29.6697 19.004 30.4726V33.9003C15.1831 32.033 12.7164 28.1607 12.7164 23.7924ZM21.4231 26.2446C20.7904 25.59 20.4358 24.7228 20.4358 23.7924C20.4358 21.8399 22.0241 20.2516 23.976 20.2516C25.9285 20.2516 27.5168 21.8399 27.5168 23.7924C27.5168 24.7362 27.1332 25.635 26.4808 26.2918C25.733 25.8306 24.8535 25.5643 23.9128 25.5643C23.0043 25.5643 22.1537 25.8129 21.4231 26.2446Z" fill="#007AFF"/>
<path d="M28.8347 3.23444C29.1958 3.23444 29.5498 3.08767 29.8048 2.83216C30.0603 2.57718 30.2071 2.22311 30.2071 1.86207C30.2071 1.50157 30.0603 1.14749 29.8048 0.891982C29.5498 0.637006 29.1958 0.490234 28.8347 0.490234C28.4742 0.490234 28.1201 0.637006 27.8652 0.891982C27.6097 1.14749 27.4629 1.50157 27.4629 1.86207C27.4629 2.22311 27.6097 2.57718 27.8652 2.83216C28.1201 3.08767 28.4742 3.23444 28.8347 3.23444Z" fill="#007AFF"/>
</g>
<defs>
<clipPath id="clip0_7833_25998">
<rect width="50" height="70" fill="white"/>
</clipPath>
</defs>
</svg>
