<svg width="460" height="176" viewBox="0 0 460 176" fill="none" xmlns="http://www.w3.org/2000/svg">
<path d="M186.64 86.8529C186.64 40.9229 195.94 35.2529 207.28 35.2529C218.91 35.2529 225.74 39.9029 227.49 74.5029L213.68 77.5529C212.95 53.7129 212.23 47.6029 207.28 47.6029C203.06 47.6029 200.45 52.2529 200.45 86.8529C200.45 121.453 202.34 127.553 207.28 127.553C212.8 127.553 213.09 121.443 213.68 96.5929L227.49 98.4829C225.75 134.093 218.77 139.913 207.28 139.913C195.94 139.913 186.64 132.783 186.64 86.8529Z" fill="#0C1C3F"/>
<path d="M234.03 87.5829C234.03 41.6529 242.46 35.2529 254.53 35.2529C266.45 35.2529 275.03 41.6529 275.03 87.5829C275.03 133.513 266.45 139.913 254.53 139.913C242.46 139.913 234.03 133.513 234.03 87.5829ZM261.21 87.5829C261.21 52.9829 259.03 47.6029 254.52 47.6029C250.01 47.6029 247.83 52.9829 247.83 87.5829C247.83 122.183 250.01 127.563 254.52 127.563C259.03 127.553 261.21 122.173 261.21 87.5829Z" fill="#0C1C3F"/>
<path d="M303.8 36.7031C317.17 36.7031 325.02 41.5031 325.02 60.2531C325.02 72.4631 321.82 79.4431 315.72 82.7831L325.02 138.453H310.92L303.8 85.5431C303.51 85.5431 303.07 85.5431 302.78 85.5431H297.55V138.453H284.47V36.7031H303.8ZM297.55 49.0531V73.1831H302.78C309.03 73.1831 311.94 70.2731 311.94 60.2431C311.94 51.6631 309.03 49.0531 302.78 49.0531H297.55Z" fill="#0C1C3F"/>
<path d="M352.35 36.7031C365.72 36.7031 373.57 41.5031 373.57 61.5631C373.57 82.0631 365.72 88.1631 351.33 88.1631H346.1V138.463H333.02V36.7031H352.35ZM346.1 49.0531V75.8031H351.33C357.58 75.8031 360.49 72.8931 360.49 61.5531C360.49 51.6731 357.58 49.0531 351.33 49.0531H346.1Z" fill="#0C1C3F"/>
<path d="M400.61 49.0529H376.63V36.6929H415V46.8729L387.67 126.093H415.73V138.453H375.03L373.58 128.273L400.61 49.0529Z" fill="#0C1C3F"/>
<path d="M418.64 87.5829C418.64 41.6529 427.07 35.2529 439.14 35.2529C451.06 35.2529 459.64 41.6529 459.64 87.5829C459.64 133.513 451.06 139.913 439.14 139.913C427.07 139.913 418.64 133.513 418.64 87.5829ZM445.82 87.5829C445.82 52.9829 443.64 47.6029 439.13 47.6029C434.62 47.6029 432.44 52.9829 432.44 87.5829C432.44 122.183 434.62 127.563 439.13 127.563C443.64 127.553 445.82 122.173 445.82 87.5829Z" fill="#0C1C3F"/>
<path d="M87.8101 175.023C39.5201 175.023 0.370117 135.873 0.370117 87.5831C0.370117 39.2931 39.5201 0.143066 87.8101 0.143066C136.1 0.143066 175.25 39.2931 175.25 87.5831C175.25 135.873 136.11 175.023 87.8101 175.023Z" fill="url(#paint0_linear_7410_58156)"/>
<path fill-rule="evenodd" clip-rule="evenodd" d="M107.516 107.471C102.136 109.311 94.1361 115.171 85.2961 120.581C83.6561 119.631 78.3361 116.381 71.7961 110.501C63.9061 103.381 56.0061 92.1405 56.0061 92.1405L51.1661 102.93C51.1661 102.93 56.0761 109.211 63.7461 116.561C69.9361 122.491 74.1061 125.211 75.4861 126.051C66.1661 130.601 56.6661 133.031 48.8461 128.671C30.2361 114.751 59.1161 78.5705 61.4161 76.0605C65.4961 71.3405 69.8561 66.8605 74.5861 62.7805C78.4361 59.4605 82.5361 56.4005 86.8861 53.7605C90.4361 51.6105 94.1661 49.7305 98.0561 48.2305C101.216 47.0205 104.496 46.0605 107.826 45.4405C110.506 44.9405 113.226 44.6605 115.956 44.6205C118.036 44.6005 120.116 44.7205 122.166 45.0205C124.666 45.3805 127.216 45.9905 129.296 47.4805C131.466 49.0305 133.116 51.5505 133.286 54.2405C133.386 55.7305 132.986 57.2005 132.216 58.4705C131.566 59.5405 130.716 60.4805 129.786 61.3205C122.486 66.6605 104.266 53.5405 104.266 53.5405L89.9061 58.1605C89.9061 58.1605 95.8961 61.6005 96.8561 62.3905C97.8161 63.1705 121.326 77.2905 131.986 71.1605C142.646 65.0405 142.846 52.6805 142.636 51.5805C141.486 32.4205 113.706 33.4805 112.966 33.6805C103.476 34.8305 94.8761 37.8305 87.3661 41.6405C82.4361 39.4505 47.5361 24.7505 37.3461 43.1705C27.3761 61.2005 37.6161 85.6105 39.5661 89.9105C28.0561 112.851 34.9961 127.561 35.2061 128.021C41.6661 143.031 59.1461 141.521 59.1461 141.521C84.4461 139.781 101.466 123.95 109.056 118.71C110.666 117.75 129.876 105.991 131.856 118.081C135.036 136.091 103.876 128.861 103.876 128.861L92.6461 135.96C134.506 149.92 145.436 128.481 142.126 117.351C139.856 111.031 134.776 95.0005 107.516 107.471ZM46.8261 48.4005C56.0461 39.7605 72.2961 46.7505 75.9661 48.5105C62.1561 58.1205 54.0861 68.8105 53.7761 69.2805C51.3861 72.0205 49.2661 74.6805 47.3661 77.2805C45.4961 73.7005 37.5461 57.1005 46.8261 48.4005Z" fill="white"/>
<defs>
<linearGradient id="paint0_linear_7410_58156" x1="87.8126" y1="0.137466" x2="87.8126" y2="175.021" gradientUnits="userSpaceOnUse">
<stop offset="0.1553" stop-color="#0C1C3F"/>
<stop offset="1" stop-color="#90D0B9"/>
</linearGradient>
</defs>
</svg>
