<svg width="1680" height="1681" viewBox="0 0 1680 1681" fill="none" xmlns="http://www.w3.org/2000/svg">
<path d="M1680 840.643C1680 890.483 1675.66 939.303 1667.34 986.753C1598.19 1381.02 1254.08 1680.64 840 1680.64C827.28 1680.64 814.63 1680.36 802.05 1679.8C355.74 1659.95 0 1291.84 0 840.643C0 376.723 376.08 0.642578 840 0.642578C1303.92 0.642578 1680 376.723 1680 840.643Z" fill="#E9F2FF"/>
<path d="M1667.34 986.753C1598.19 1381.02 1254.08 1680.64 840 1680.64C827.28 1680.64 814.63 1680.36 802.05 1679.8C614.99 1492.7 460.2 1337.79 458.99 1336.4C434.63 1315.31 421.39 1283.15 425.06 1249.79C433.21 1175.58 456.73 1101.71 510.49 1068.25C609.56 1006.6 707.9 980.333 707.9 980.333C711.37 969.553 715.26 933.873 717.3 897.353C704.75 884.323 692.32 870.723 679.21 857.833C658.03 837.013 652.79 808.623 646.25 772.873C641.57 770.793 638.9 766.773 636.49 763.093C636.47 763.063 636.45 763.023 636.42 762.983C631.67 760.923 628.98 756.863 626.55 753.153C626.53 753.123 626.51 753.083 626.48 753.043C621.73 750.983 619.04 746.923 616.61 743.223C613.65 738.683 612.48 733.253 611.38 727.953C607.39 708.883 603.4 689.823 599.42 670.763C596.42 656.443 593.41 641.773 595.44 627.283C596.42 620.433 598.85 613.253 604.48 609.223C610.1 605.193 619.5 606.163 622.32 612.493C622.32 612.493 613.2 522.763 613.2 530.313C605.58 521.853 599.55 503.433 602.07 489.193C604.59 474.963 609.12 461.113 611.38 446.843C613.84 431.163 613.59 414.993 618.09 399.773C624.43 378.323 639.6 360.743 655.04 344.553C665.98 333.093 677.29 321.953 689.62 312.023C714.33 292.163 743.78 277.223 775.29 273.693C785.4 272.563 795.6 272.613 805.77 272.663C817.17 272.723 828.59 272.773 840 272.833C851.41 272.773 862.83 272.723 874.23 272.663C884.4 272.613 894.6 272.563 904.71 273.693C936.22 277.223 965.67 292.163 990.38 312.023C1001.15 320.693 1011.13 330.283 1020.77 340.213C1022.78 342.153 1378.99 698.363 1667.34 986.753Z" fill="#DDEBFF"/>
<path d="M1193.46 1353.32C1131.3 1378.75 1019.94 1408.64 839.999 1408.64C660.059 1408.64 548.702 1378.75 486.539 1353.32C445.213 1336.42 420.183 1294.18 425.056 1249.79C433.208 1175.58 456.732 1101.71 510.493 1068.26C609.562 1006.6 707.902 980.336 707.902 980.336C711.367 969.553 715.261 933.878 717.3 897.352C704.753 884.319 692.318 870.719 679.204 857.831C654.238 833.295 651.429 798.226 642.517 752.99C626.14 757.645 620.96 749.849 616.612 743.219C613.649 738.686 612.483 733.254 611.374 727.951C607.383 708.887 603.4 689.822 599.417 670.758C596.422 656.438 593.41 641.769 595.442 627.279C596.413 620.43 598.85 613.25 604.476 609.219C610.102 605.196 619.501 606.168 622.318 612.49C622.318 612.49 613.195 522.762 613.195 530.315C605.577 521.856 599.546 503.431 602.072 489.191C604.59 474.96 609.115 461.109 611.373 446.837C613.842 431.165 613.583 414.992 618.084 399.773C624.431 378.321 639.601 360.737 655.038 344.555C665.975 333.092 677.284 321.953 689.621 312.021C714.328 292.163 743.778 277.221 775.284 273.691C785.395 272.566 795.595 272.613 805.762 272.662C817.168 272.719 828.582 272.776 839.996 272.833C851.41 272.776 862.824 272.719 874.23 272.662C884.397 272.613 894.597 272.566 904.708 273.691C936.214 277.221 965.665 292.163 990.371 312.021C1002.71 321.954 1014.02 333.093 1024.95 344.555C1040.39 360.737 1055.56 378.321 1061.91 399.773C1066.41 414.992 1066.15 431.165 1068.62 446.837C1070.88 461.109 1075.4 474.96 1077.92 489.191C1080.45 503.43 1074.42 521.855 1066.8 530.315C1066.8 522.762 1057.67 612.49 1057.67 612.49C1060.49 606.168 1069.89 605.195 1075.52 609.219C1081.14 613.25 1083.58 620.431 1084.55 627.279C1086.58 641.769 1083.57 656.438 1080.58 670.758C1076.59 689.822 1072.61 708.887 1068.62 727.951C1067.51 733.253 1066.34 738.685 1063.38 743.219C1059.03 749.849 1053.85 757.645 1037.48 752.99C1028.56 798.226 1025.75 833.294 1000.79 857.831C987.674 870.718 975.24 884.318 962.692 897.352C964.732 933.878 968.626 969.553 972.09 980.336C972.09 980.336 1070.43 1006.6 1169.5 1068.26C1223.26 1101.71 1246.78 1175.58 1254.94 1249.79C1259.82 1294.18 1234.79 1336.42 1193.46 1353.32Z" fill="#A8CDFF"/>
<path d="M708.031 980.819L708.295 980.748L708.378 980.488C710.129 975.041 711.972 963.377 713.633 948.553C715.296 933.71 716.78 915.65 717.8 897.379L717.812 897.162L717.66 897.005C713.6 892.787 709.549 888.508 705.481 884.21C696.99 875.239 688.425 866.191 679.555 857.474C667.156 845.289 660.245 830.479 655.322 813.037C651.87 800.811 649.404 787.328 646.703 772.567C645.546 766.244 644.346 759.687 643.008 752.893L642.903 752.36L642.381 752.509C634.279 754.811 629.036 754.012 625.3 751.901C621.535 749.773 619.213 746.273 617.03 742.944C614.128 738.503 612.976 733.166 611.864 727.848C607.898 708.904 603.94 689.96 599.982 671.015L599.907 670.656C596.909 656.322 593.92 641.739 595.937 627.35C596.903 620.539 599.312 613.535 604.767 609.626C607.464 607.698 611.085 606.957 614.374 607.469C617.66 607.981 620.54 609.727 621.862 612.693L622.816 612.439L622.784 612.442C622.816 612.438 622.816 612.438 622.816 612.438L622.815 612.435L622.814 612.423L622.809 612.374L622.789 612.182L622.713 611.433L622.6 610.323C622.549 609.826 622.49 609.249 622.424 608.598C622.174 606.159 621.818 602.683 621.39 598.536C620.535 590.242 619.394 579.262 618.254 568.517C617.114 557.773 615.973 547.263 615.117 539.911C614.69 536.236 614.333 533.345 614.082 531.607C613.959 530.751 613.857 530.14 613.78 529.861C613.769 529.823 613.757 529.782 613.743 529.744C613.731 529.714 613.707 529.65 613.662 529.587C613.641 529.557 613.592 529.492 613.506 529.44C613.406 529.379 613.247 529.331 613.072 529.392C613.067 529.394 613.062 529.396 613.057 529.397C609.518 525.217 606.344 518.842 604.31 511.783C602.18 504.39 601.319 496.303 602.565 489.279L602.565 489.279C603.745 482.61 605.367 476.023 606.993 469.419C607.098 468.996 607.202 468.572 607.306 468.149C609.034 461.125 610.734 454.075 611.867 446.916L611.867 446.915C612.769 441.194 613.308 435.4 613.845 429.628C614.046 427.476 614.246 425.327 614.464 423.186C615.27 415.288 616.327 407.478 618.564 399.914C624.873 378.589 639.963 361.083 655.4 344.901C666.331 333.444 677.622 322.323 689.935 312.411C714.59 292.595 743.953 277.704 775.34 274.187C785.417 273.066 795.588 273.113 805.76 273.162C811.578 273.192 817.399 273.22 823.22 273.249C828.811 273.277 834.402 273.305 839.994 273.333L839.999 273.333C845.59 273.305 851.181 273.277 856.772 273.249C862.594 273.22 868.414 273.192 874.233 273.162C884.404 273.113 894.576 273.066 904.653 274.187C936.039 277.704 965.403 292.595 990.058 312.411C1002.37 322.324 1013.66 333.445 1024.59 344.901C1040.03 361.083 1055.12 378.589 1061.43 399.914C1063.67 407.478 1064.72 415.288 1065.53 423.186C1065.75 425.327 1065.95 427.475 1066.15 429.627C1066.68 435.4 1067.22 441.194 1068.13 446.915L1068.62 446.837L1068.13 446.916C1069.26 454.075 1070.96 461.125 1072.69 468.149L1073 469.408C1074.62 476.016 1076.25 482.606 1077.43 489.279L1077.92 489.191L1077.43 489.279C1078.67 496.303 1077.81 504.389 1075.68 511.782C1073.65 518.842 1070.47 525.217 1066.93 529.397C1066.93 529.396 1066.93 529.394 1066.92 529.392C1066.75 529.331 1066.59 529.379 1066.49 529.44C1066.4 529.492 1066.35 529.557 1066.33 529.587C1066.29 529.65 1066.26 529.714 1066.25 529.744C1066.24 529.782 1066.22 529.823 1066.21 529.861C1066.14 530.14 1066.03 530.751 1065.91 531.607C1065.66 533.345 1065.3 536.236 1064.88 539.911C1064.02 547.263 1062.88 557.773 1061.74 568.517C1060.6 579.262 1059.46 590.242 1058.6 598.536C1058.17 602.684 1057.82 606.159 1057.57 608.598C1057.49 609.329 1057.43 609.966 1057.37 610.501L1057.28 611.433L1057.2 612.182L1057.18 612.374L1057.18 612.423L1057.18 612.435L1057.18 612.438C1057.18 612.439 1057.18 612.439 1057.67 612.49L1057.18 612.439L1058.13 612.693C1059.45 609.727 1062.33 607.98 1065.62 607.469C1068.91 606.957 1072.53 607.698 1075.23 609.626C1080.68 613.534 1083.09 620.54 1084.06 627.349C1086.07 641.738 1083.08 656.322 1080.09 670.656L1080.58 670.758L1080.09 670.656C1076.1 689.72 1072.12 708.784 1068.13 727.848C1067.02 733.166 1065.86 738.503 1062.96 742.945C1060.78 746.273 1058.46 749.773 1054.69 751.901C1050.96 754.012 1045.71 754.811 1037.61 752.509L1037.09 752.36L1036.98 752.893C1035.65 759.688 1034.45 766.246 1033.29 772.57C1030.59 787.33 1028.12 800.811 1024.67 813.036C1019.75 830.478 1012.84 845.289 1000.44 857.474C991.568 866.19 983.005 875.237 974.514 884.207C970.445 888.505 966.393 892.786 962.332 897.005L962.181 897.162L962.193 897.379C963.214 915.65 964.698 933.71 966.36 948.553C968.021 963.377 969.864 975.041 971.614 980.488L971.698 980.748L971.961 980.819L972.09 980.336C971.961 980.819 971.961 980.819 971.962 980.819L971.965 980.82L971.979 980.823L972.032 980.838C972.079 980.85 972.15 980.869 972.244 980.895C972.432 980.946 972.713 981.024 973.085 981.127C973.827 981.334 974.93 981.646 976.37 982.065C979.248 982.902 983.473 984.168 988.852 985.88C999.611 989.303 1014.99 994.51 1033.46 1001.64C1070.41 1015.91 1119.73 1037.88 1169.24 1068.68C1196 1085.34 1215.27 1112.07 1228.86 1143.94C1242.46 1175.8 1250.37 1212.77 1254.44 1249.85C1259.29 1294.01 1234.39 1336.04 1193.27 1352.86C1131.17 1378.26 1019.88 1408.14 839.999 1408.14C660.115 1408.14 548.824 1378.26 486.729 1352.86C445.61 1336.04 420.705 1294.01 425.553 1249.85C429.626 1212.77 437.537 1175.8 451.131 1143.94C464.726 1112.07 483.992 1085.34 510.757 1068.68C560.258 1037.88 609.58 1015.91 646.529 1001.64C665.002 994.51 680.381 989.303 691.14 985.88C696.52 984.168 700.744 982.902 703.623 982.065C705.062 981.646 706.165 981.334 706.908 981.127C707.036 981.091 707.154 981.059 707.261 981.029C707.463 980.973 707.626 980.929 707.749 980.895C707.843 980.869 707.914 980.85 707.961 980.838L708.014 980.823L708.027 980.82L708.03 980.819C708.031 980.819 708.031 980.819 707.902 980.336L708.031 980.819Z" stroke="black" stroke-opacity="0.3"/>
</svg>
