<svg width="17" height="20" viewBox="0 0 17 20" fill="none" xmlns="http://www.w3.org/2000/svg">
<path fill-rule="evenodd" clip-rule="evenodd" d="M6.16309 16.5625C6.16309 17.124 6.39666 17.648 6.76839 18.0197C7.14012 18.3914 7.66411 18.625 8.22559 18.625C9.35839 18.625 10.2881 17.6953 10.2881 16.5625H11.6631C11.6631 18.4547 10.1178 20 8.22559 20C7.28373 20 6.41438 19.6102 5.79612 18.992C5.17785 18.3737 4.78809 17.5044 4.78809 16.5625H6.16309Z" fill="white"/>
<path fill-rule="evenodd" clip-rule="evenodd" d="M5.88921 1.77329C6.25537 0.83895 7.16443 0.181641 8.22514 0.181641C9.28586 0.181641 10.1949 0.83895 10.5611 1.77329C10.6567 2.01719 10.6053 2.29421 10.4287 2.48768C10.2521 2.68114 9.98087 2.75742 9.7293 2.68438C9.47501 2.61055 9.21836 2.55484 8.95825 2.52331L8.9557 2.523C8.16333 2.42395 7.41463 2.48274 6.72122 2.68431C6.46963 2.75745 6.19835 2.68123 6.02166 2.48776C5.84497 2.2943 5.79361 2.01723 5.88921 1.77329Z" fill="white"/>
<path fill-rule="evenodd" clip-rule="evenodd" d="M2.03769 7.2583C2.03769 3.84444 4.81133 1.0708 8.22519 1.0708C11.6299 1.0708 14.4127 3.8536 14.4127 7.2583V9.90747C14.4127 10.1044 14.4573 10.3927 14.5417 10.7007C14.6252 11.005 14.733 11.2755 14.8311 11.4472L15.8822 13.1929C16.7123 14.5764 16.0487 16.3786 14.5195 16.8849C10.4276 18.2518 6.01255 18.2517 1.92066 16.8845L1.91811 16.8837C1.1459 16.6223 0.566792 16.0819 0.307862 15.3827C0.0486327 14.6826 0.136817 13.8946 0.559435 13.1922L1.61216 11.4438C1.61239 11.4434 1.61263 11.443 1.61286 11.4426C1.71324 11.2738 1.82319 11.0044 1.90805 10.6987C1.99316 10.3921 2.03769 10.1042 2.03769 9.90747V7.2583ZM8.22519 2.4458C5.57072 2.4458 3.41269 4.60383 3.41269 7.2583V9.90747C3.41269 10.2699 3.33805 10.6879 3.23295 11.0665C3.12779 11.4453 2.97681 11.8399 2.79321 12.1478L2.79167 12.1504L1.73761 13.9011C1.73757 13.9011 1.73764 13.901 1.73761 13.9011C1.50949 14.2803 1.49676 14.6337 1.5973 14.9052C1.69807 15.1773 1.939 15.4388 2.35771 15.5808C6.16677 16.8532 10.2758 16.853 14.0848 15.5804L14.0869 15.5797C14.7751 15.3522 15.0827 14.5337 14.7035 13.9008C14.7034 13.9007 14.7036 13.901 14.7035 13.9008L13.6429 12.1394C13.4668 11.8342 13.3194 11.4423 13.2157 11.0644C13.1123 10.6872 13.0377 10.2697 13.0377 9.90747V7.2583C13.0377 4.613 10.8705 2.4458 8.22519 2.4458Z" fill="white"/>
<circle cx="8.20215" cy="7.42529" r="5.37402" fill="white"/>
<path d="M15.3469 14.2669C15.3469 17.2349 10.9303 17.0033 8.52993 18.8995C7.80048 18.5414 7.18574 18.6835 6.58566 18.0834C3.52617 16.9995 0.96875 16.6948 0.96875 14.2669C0.96875 11.2989 5.01966 6.57227 7.98765 6.57227C10.9556 6.57227 15.3469 11.2989 15.3469 14.2669Z" fill="white"/>
</svg>
