<svg width="20" height="20" viewBox="0 0 20 20" fill="none" xmlns="http://www.w3.org/2000/svg">
<g clip-path="url(#clip0_7453_16294)">
<path d="M14.6797 10.7496C14.0391 10.4761 13.2969 10.6558 12.8555 11.1949L11.5586 12.7808C9.76172 11.7378 8.26172 10.2378 7.21875 8.44097L8.80078 7.148C9.33984 6.70659 9.52344 5.9644 9.24609 5.32378L7.37109 0.948779C7.07812 0.261279 6.33984 -0.121533 5.60938 0.0347169L1.23438 0.972217C0.515625 1.12456 0 1.76128 0 2.49956C0 11.7457 7.16797 19.316 16.25 19.9566C16.4258 19.9683 16.6055 19.98 16.7852 19.9878C16.7852 19.9878 16.7852 19.9878 16.7891 19.9878C17.0273 19.9957 17.2617 20.0035 17.5039 20.0035C18.2422 20.0035 18.8789 19.4878 19.0313 18.7691L19.9688 14.3941C20.125 13.6636 19.7422 12.9253 19.0547 12.6324L14.6797 10.7574V10.7496ZM17.4883 18.7496C8.51953 18.7417 1.25 11.4722 1.25 2.49956C1.25 2.35112 1.35156 2.22612 1.49609 2.19487L5.87109 1.25737C6.01563 1.22612 6.16406 1.30425 6.22266 1.44097L8.09766 5.81597C8.15234 5.94487 8.11719 6.09331 8.00781 6.17925L6.42187 7.47612C5.94922 7.86284 5.82422 8.53862 6.13281 9.06987C7.28516 11.0582 8.94141 12.7144 10.9258 13.8628C11.457 14.1714 12.1328 14.0464 12.5195 13.5738L13.8164 11.9878C13.9063 11.8785 14.0547 11.8433 14.1797 11.898L18.5547 13.773C18.6914 13.8316 18.7695 13.98 18.7383 14.1246L17.8008 18.4996C17.7695 18.6441 17.6406 18.7457 17.4961 18.7457C17.4922 18.7457 17.4883 18.7457 17.4844 18.7457L17.4883 18.7496Z" fill="#0A1C40"/>
</g>
<defs>
<clipPath id="clip0_7453_16294">
<rect width="20" height="20" fill="white"/>
</clipPath>
</defs>
</svg>
