<svg width="22" height="18" viewBox="0 0 22 18" fill="none" xmlns="http://www.w3.org/2000/svg">
<path d="M9.76133 17.5116L9.65879 17.4173L2.47285 10.744C1.21367 9.57509 0.5 7.93446 0.5 6.21591V6.08056C0.5 3.19306 2.55078 0.715713 5.38906 0.174307C7.00508 -0.137412 8.65801 0.23583 9.97461 1.16278C10.3438 1.42528 10.6883 1.7288 11 2.07743C11.1723 1.88056 11.3568 1.70009 11.5537 1.53192C11.7055 1.40067 11.8613 1.27763 12.0254 1.16278C13.342 0.23583 14.9949 -0.137412 16.6109 0.170205C19.4492 0.711611 21.5 3.19306 21.5 6.08056V6.21591C21.5 7.93446 20.7863 9.57509 19.5271 10.744L12.3412 17.4173L12.2387 17.5116C11.9023 17.8233 11.4594 17.9997 11 17.9997C10.5406 17.9997 10.0977 17.8274 9.76133 17.5116ZM10.3068 4.25536C10.2904 4.24306 10.2781 4.22665 10.2658 4.21024L9.53574 3.38993L9.53164 3.38583C8.58418 2.32353 7.15273 1.83954 5.7582 2.10614C3.84687 2.47118 2.46875 4.13642 2.46875 6.08056V6.21591C2.46875 7.38485 2.95684 8.50458 3.81406 9.30028L11 15.9735L18.1859 9.30028C19.0432 8.50458 19.5312 7.38485 19.5312 6.21591V6.08056C19.5312 4.14052 18.1531 2.47118 16.2459 2.10614C14.8514 1.83954 13.4158 2.32763 12.4725 3.38583C12.4725 3.38583 12.4725 3.38583 12.4684 3.38993C12.4643 3.39403 12.4684 3.38993 12.4643 3.39403L11.7342 4.21435C11.7219 4.23075 11.7055 4.24306 11.6932 4.25946C11.5086 4.44403 11.2584 4.54657 11 4.54657C10.7416 4.54657 10.4914 4.44403 10.3068 4.25946V4.25536Z" fill="white"/>
</svg>
