<svg width="21" height="19" viewBox="0 0 21 19" fill="none" xmlns="http://www.w3.org/2000/svg">
<path d="M1.95234 11.112L9.36387 18.0242C9.67148 18.311 10.0775 18.4708 10.5 18.4708C10.9225 18.4708 11.3285 18.311 11.6361 18.0242L19.0477 11.112C20.2945 9.95247 21 8.32584 21 6.62546V6.38782C21 3.5238 18.9287 1.08181 16.1027 0.610622C14.2324 0.299227 12.3293 0.909726 10.9922 2.24545L10.5 2.73712L10.0078 2.24545C8.6707 0.909726 6.76758 0.299227 4.89727 0.610622C2.07129 1.08181 0 3.5238 0 6.38782V6.62546C0 8.32584 0.705469 9.95247 1.95234 11.112Z" fill="white"/>
</svg>
