<svg width="19" height="20" viewBox="0 0 19 20" fill="none" xmlns="http://www.w3.org/2000/svg">
<path d="M6.125 14.1562C7.05664 14.1562 7.8125 14.9541 7.8125 15.9375V16.5312L10.3613 14.5125C10.6531 14.2824 11.0082 14.1562 11.3738 14.1562H16.25C16.5594 14.1562 16.8125 13.8891 16.8125 13.5625V2.875C16.8125 2.54844 16.5594 2.28125 16.25 2.28125H2.75C2.44062 2.28125 2.1875 2.54844 2.1875 2.875V13.5625C2.1875 13.8891 2.44062 14.1562 2.75 14.1562H6.125ZM7.8125 18.7578L7.80547 18.7652L7.62617 18.9062L7.025 19.3812C6.85625 19.5148 6.62773 19.5371 6.43438 19.4369C6.24102 19.3367 6.125 19.1326 6.125 18.9062V18.1158V17.8783V17.8672V17.7187V15.9375H4.4375H2.75C1.50898 15.9375 0.5 14.8725 0.5 13.5625V2.875C0.5 1.56504 1.50898 0.5 2.75 0.5H16.25C17.491 0.5 18.5 1.56504 18.5 2.875V13.5625C18.5 14.8725 17.491 15.9375 16.25 15.9375H11.3738L7.8125 18.7578Z" fill="white"/>
</svg>
