<svg width="18" height="20" viewBox="0 0 18 20" fill="none" xmlns="http://www.w3.org/2000/svg">
<path d="M5.62695 14.3437C6.55859 14.3437 7.31445 15.1416 7.31445 16.125V16.7187L9.86328 14.7C10.1551 14.4699 10.5102 14.3437 10.8758 14.3437H15.752C16.0613 14.3437 16.3145 14.0766 16.3145 13.75V3.0625C16.3145 2.73594 16.0613 2.46875 15.752 2.46875H2.25195C1.94258 2.46875 1.68945 2.73594 1.68945 3.0625V13.75C1.68945 14.0766 1.94258 14.3437 2.25195 14.3437H5.62695ZM7.31445 18.9453L7.30742 18.9527L7.12812 19.0937L6.52695 19.5687C6.3582 19.7023 6.12969 19.7246 5.93633 19.6244C5.74297 19.5242 5.62695 19.3201 5.62695 19.0937V18.3033V18.0658V18.0547V17.9062V16.125H3.93945H2.25195C1.01094 16.125 0.00195312 15.06 0.00195312 13.75V3.0625C0.00195312 1.75254 1.01094 0.6875 2.25195 0.6875H15.752C16.993 0.6875 18.002 1.75254 18.002 3.0625V13.75C18.002 15.06 16.993 16.125 15.752 16.125H10.8758L7.31445 18.9453Z" fill="white"/>
</svg>
