<svg width="16" height="15" viewBox="0 0 16 15" fill="none" xmlns="http://www.w3.org/2000/svg">
<path fill-rule="evenodd" clip-rule="evenodd" d="M3.4967 5.48211C3.4967 3.19069 5.35839 1.32899 7.64981 1.32899C9.93508 1.32899 11.8029 3.19684 11.8029 5.48211V7.26026C11.8029 7.39246 11.8329 7.58595 11.8896 7.79271C11.9456 7.99696 12.0179 8.17849 12.0838 8.29375L12.7893 9.46549C13.3465 10.3941 12.9011 11.6038 11.8746 11.9436C9.12808 12.861 6.16467 12.861 3.41815 11.9433L3.41644 11.9428C2.89813 11.7673 2.50942 11.4046 2.33562 10.9353C2.16163 10.4654 2.22082 9.93644 2.50448 9.46499L3.21108 8.29143C3.21124 8.29117 3.21139 8.29091 3.21155 8.29064C3.27893 8.17736 3.35273 7.9965 3.40969 7.79133C3.46681 7.58553 3.4967 7.39232 3.4967 7.26026V5.48211ZM7.64981 2.25191C5.86811 2.25191 4.41961 3.7004 4.41961 5.48211V7.26026C4.41961 7.50351 4.36951 7.78406 4.29897 8.03819C4.22839 8.29245 4.12705 8.55731 4.00382 8.76402L4.00278 8.76575L3.29528 9.94081C3.29526 9.94085 3.29531 9.94077 3.29528 9.94081C3.14217 10.1954 3.13362 10.4325 3.20111 10.6148C3.26874 10.7974 3.43046 10.9729 3.7115 11.0683C6.26818 11.9223 9.02623 11.9222 11.5829 11.068L11.5843 11.0675C12.0462 10.9148 12.2527 10.3654 11.9981 9.94065C11.998 9.94054 11.9982 9.94076 11.9981 9.94065L11.2862 8.75837C11.1681 8.5535 11.0691 8.29047 10.9995 8.0368C10.9301 7.78364 10.88 7.50338 10.88 7.26026V5.48211C10.88 3.70655 9.42537 2.25191 7.64981 2.25191Z" fill="white"/>
<path fill-rule="evenodd" clip-rule="evenodd" d="M6.08187 1.80051C6.32764 1.17337 6.93781 0.732178 7.64978 0.732178C8.36174 0.732178 8.97191 1.17337 9.21768 1.80051C9.28184 1.96422 9.24738 2.15016 9.12883 2.28001C9.01028 2.40987 8.82824 2.46106 8.65938 2.41204C8.4887 2.36249 8.31643 2.32509 8.14184 2.30393L8.14014 2.30372C7.60828 2.23724 7.10575 2.2767 6.64033 2.412C6.47146 2.46109 6.28937 2.40993 6.17077 2.28007C6.05218 2.15022 6.01771 1.96424 6.08187 1.80051Z" fill="white"/>
<path fill-rule="evenodd" clip-rule="evenodd" d="M6.26557 11.7272C6.26557 12.104 6.42234 12.4557 6.67185 12.7052C6.92136 12.9548 7.27307 13.1115 7.64994 13.1115C8.41029 13.1115 9.03431 12.4875 9.03431 11.7272H9.95722C9.95722 12.9972 8.92 14.0344 7.64994 14.0344C7.01775 14.0344 6.43424 13.7728 6.01925 13.3578C5.60426 12.9429 5.34265 12.3593 5.34265 11.7272H6.26557Z" fill="white"/>
</svg>
