<svg width="22" height="23" viewBox="0 0 22 23" fill="none" xmlns="http://www.w3.org/2000/svg">
<path fill-rule="evenodd" clip-rule="evenodd" d="M4.83261 8.35547C4.83261 4.94161 7.60625 2.16797 11.0201 2.16797C14.4248 2.16797 17.2076 4.95077 17.2076 8.35547V11.0046C17.2076 11.2016 17.2522 11.4899 17.3367 11.7979C17.4201 12.1022 17.5279 12.3727 17.6261 12.5444L18.6771 14.2901C19.5072 15.6736 18.8437 17.4758 17.3144 17.982C13.2225 19.3489 8.80747 19.3488 4.71558 17.9817L4.71303 17.9808C3.94082 17.7195 3.36171 17.1791 3.10278 16.4798C2.84355 15.7797 2.93174 14.9917 3.35436 14.2894L4.40708 12.5409C4.40732 12.5405 4.40755 12.5401 4.40778 12.5398C4.50816 12.371 4.61812 12.1015 4.70297 11.7958C4.78808 11.4892 4.83261 11.2014 4.83261 11.0046V8.35547ZM11.0201 3.54297C8.36564 3.54297 6.20761 5.701 6.20761 8.35547V11.0046C6.20761 11.3671 6.13297 11.785 6.02787 12.1636C5.92271 12.5424 5.77173 12.937 5.58813 13.245L5.5866 13.2476L4.53253 14.9983C4.53249 14.9983 4.53256 14.9982 4.53253 14.9983C4.30441 15.3775 4.29168 15.7308 4.39223 16.0024C4.49299 16.2745 4.73392 16.5359 5.15263 16.678C8.96169 17.9503 13.0708 17.9502 16.8797 16.6776L16.8818 16.6769C17.57 16.4494 17.8776 15.6308 17.4984 14.998C17.4983 14.9978 17.4985 14.9982 17.4984 14.998L16.4378 13.2366C16.2617 12.9314 16.1143 12.5395 16.0106 12.1616C15.9072 11.7844 15.8326 11.3668 15.8326 11.0046V8.35547C15.8326 5.71016 13.6654 3.54297 11.0201 3.54297Z" fill="white"/>
<path fill-rule="evenodd" clip-rule="evenodd" d="M8.68413 2.86899C9.05029 1.93465 9.95935 1.27734 11.0201 1.27734C12.0808 1.27734 12.9898 1.93465 13.356 2.86899C13.4516 3.11289 13.4003 3.38992 13.2236 3.58338C13.047 3.77684 12.7758 3.85312 12.5242 3.78008C12.2699 3.70626 12.0133 3.65054 11.7532 3.61901L11.7506 3.6187C10.9582 3.51965 10.2095 3.57844 9.51614 3.78002C9.26455 3.85315 8.99327 3.77693 8.81658 3.58347C8.6399 3.39 8.58853 3.11293 8.68413 2.86899Z" fill="white"/>
<path fill-rule="evenodd" clip-rule="evenodd" d="M8.95801 17.6562C8.95801 18.2177 9.19158 18.7417 9.56331 19.1134C9.93504 19.4852 10.459 19.7188 11.0205 19.7188C12.1533 19.7188 13.083 18.7891 13.083 17.6562H14.458C14.458 19.5484 12.9127 21.0938 11.0205 21.0938C10.0786 21.0938 9.20931 20.704 8.59104 20.0857C7.97277 19.4675 7.58301 18.5981 7.58301 17.6562H8.95801Z" fill="white"/>
</svg>
