<svg width="147" height="164" viewBox="0 0 147 164" fill="none" xmlns="http://www.w3.org/2000/svg">
<path d="M102.032 2.74316H0.769531V163.106H144.41V45.1241L102.032 2.74316Z" fill="#161D21"/>
<path d="M101.532 45.1241V45.6241H102.032H143.91V162.606H1.26953V3.24316H101.532V45.1241Z" fill="white" stroke="#D9D9D9"/>
<g filter="url(#filter0_f_7681_16516)">
<path d="M102.109 3.91113V45.1045C102.109 45.6568 102.557 46.1045 103.109 46.1045H143.893" stroke="black"/>
</g>
<rect x="0.253906" y="110.708" width="144.155" height="52.6094" fill="#80BCFF"/>
<path d="M54.4582 144.712C53.9782 144.712 53.4822 144.7 52.9702 144.676C52.4662 144.66 51.9502 144.632 51.4222 144.592C50.8942 144.552 50.3622 144.5 49.8262 144.436V127.144C50.3462 127.032 50.9022 126.936 51.4942 126.856C52.0942 126.768 52.6982 126.704 53.3062 126.664C53.9222 126.616 54.5222 126.592 55.1062 126.592C58.2262 126.592 60.5782 127.332 62.1622 128.812C63.7542 130.284 64.5502 132.568 64.5502 135.664C64.5502 137.776 64.1782 139.5 63.4342 140.836C62.6902 142.164 61.5702 143.144 60.0742 143.776C58.5782 144.4 56.7062 144.712 54.4582 144.712ZM55.2502 142.072C56.5862 142.072 57.6982 141.86 58.5862 141.436C59.4822 141.004 60.1502 140.316 60.5902 139.372C61.0302 138.428 61.2502 137.188 61.2502 135.652C61.2502 134.124 61.0302 132.888 60.5902 131.944C60.1502 131 59.4862 130.312 58.5982 129.88C57.7182 129.44 56.6222 129.22 55.3102 129.22C54.9582 129.22 54.5822 129.24 54.1822 129.28C53.7902 129.312 53.4062 129.36 53.0302 129.424V141.964C53.3902 142.004 53.7462 142.032 54.0982 142.048C54.4582 142.064 54.8422 142.072 55.2502 142.072ZM74.7603 144.772C73.1523 144.772 71.7483 144.448 70.5483 143.8C69.3483 143.152 68.4123 142.156 67.7403 140.812C67.0763 139.468 66.7443 137.752 66.7443 135.664C66.7443 133.576 67.0763 131.86 67.7403 130.516C68.4123 129.172 69.3483 128.176 70.5483 127.528C71.7483 126.88 73.1523 126.556 74.7603 126.556C76.3763 126.556 77.7843 126.88 78.9843 127.528C80.1843 128.176 81.1163 129.176 81.7803 130.528C82.4443 131.872 82.7763 133.584 82.7763 135.664C82.7763 137.744 82.4443 139.46 81.7803 140.812C81.1163 142.156 80.1803 143.152 78.9723 143.8C77.7723 144.448 76.3683 144.772 74.7603 144.772ZM74.7603 142.144C75.7363 142.144 76.5763 141.932 77.2803 141.508C77.9843 141.084 78.5243 140.404 78.9003 139.468C79.2843 138.524 79.4763 137.28 79.4763 135.736C79.4763 134.144 79.2843 132.868 78.9003 131.908C78.5163 130.948 77.9723 130.256 77.2683 129.832C76.5643 129.4 75.7283 129.184 74.7603 129.184C73.8003 129.184 72.9643 129.396 72.2523 129.82C71.5483 130.236 71.0043 130.916 70.6203 131.86C70.2363 132.796 70.0443 134.04 70.0443 135.592C70.0443 137.192 70.2363 138.472 70.6203 139.432C71.0043 140.392 71.5483 141.084 72.2523 141.508C72.9563 141.932 73.7923 142.144 74.7603 142.144ZM93.8107 144.772C92.4267 144.772 91.1867 144.604 90.0907 144.268C89.0027 143.924 88.0787 143.392 87.3187 142.672C86.5587 141.944 85.9787 141.004 85.5787 139.852C85.1787 138.7 84.9787 137.316 84.9787 135.7C84.9787 133.628 85.3307 131.916 86.0347 130.564C86.7467 129.212 87.7747 128.208 89.1187 127.552C90.4627 126.888 92.0907 126.556 94.0027 126.556C94.6827 126.556 95.3387 126.596 95.9707 126.676C96.6027 126.748 97.2227 126.86 97.8307 127.012V129.688C97.2467 129.536 96.6547 129.424 96.0547 129.352C95.4627 129.28 94.8547 129.244 94.2307 129.244C92.9267 129.244 91.8387 129.456 90.9667 129.88C90.0947 130.304 89.4387 130.988 88.9987 131.932C88.5667 132.868 88.3507 134.108 88.3507 135.652C88.3507 137.244 88.5707 138.512 89.0107 139.456C89.4507 140.392 90.0947 141.064 90.9427 141.472C91.7987 141.88 92.8507 142.084 94.0987 142.084C94.7227 142.084 95.3387 142.036 95.9467 141.94C96.5547 141.844 97.1827 141.696 97.8307 141.496V144.172C97.2547 144.356 96.6227 144.5 95.9347 144.604C95.2467 144.716 94.5387 144.772 93.8107 144.772Z" fill="white"/>
<path d="M131.663 63.0479H12.4844V66.6259H131.663V63.0479Z" fill="#B0B0B0" fill-opacity="0.5"/>
<path d="M131.663 71.1943H12.4844V74.7793H131.663V71.1943Z" fill="#B0B0B0" fill-opacity="0.5"/>
<path d="M131.663 79.3389H12.4844V82.9238H131.663V79.3389Z" fill="#B0B0B0" fill-opacity="0.5"/>
<path d="M131.663 86.9238H12.4844V90.5018H131.663V86.9238Z" fill="#B0B0B0" fill-opacity="0.5"/>
<path d="M131.663 95.0703H12.4844V98.6553H131.663V95.0703Z" fill="#B0B0B0" fill-opacity="0.5"/>
<path d="M131.663 103.215H12.4844V106.8H131.663V103.215Z" fill="#B0B0B0" fill-opacity="0.5"/>
<defs>
<filter id="filter0_f_7681_16516" x="98.6094" y="0.911133" width="48.2832" height="48.6934" filterUnits="userSpaceOnUse" color-interpolation-filters="sRGB">
<feFlood flood-opacity="0" result="BackgroundImageFix"/>
<feBlend mode="normal" in="SourceGraphic" in2="BackgroundImageFix" result="shape"/>
<feGaussianBlur stdDeviation="1.5" result="effect1_foregroundBlur_7681_16516"/>
</filter>
</defs>
</svg>
