<svg width="148" height="163" viewBox="0 0 148 163" fill="none" xmlns="http://www.w3.org/2000/svg">
<path d="M102.157 1.96973H0.894531V162.333H144.535V44.3507L102.157 1.96973Z" fill="#161D21"/>
<path d="M101.657 44.3507V44.8507H102.157H144.035V161.833H1.39453V2.46973H101.657V44.3507Z" fill="white" stroke="#D9D9D9"/>
<g filter="url(#filter0_f_7681_16531)">
<path d="M102.234 3.1377V44.3311C102.234 44.8833 102.682 45.3311 103.234 45.3311H144.018" stroke="black"/>
</g>
<rect x="0.378906" y="109.935" width="144.155" height="52.6094" fill="#FF6969"/>
<path d="M49.9512 143.771V126.311C50.7512 126.151 51.5672 126.027 52.3992 125.939C53.2312 125.851 54.1112 125.807 55.0392 125.807C57.5752 125.807 59.4832 126.311 60.7632 127.319C62.0512 128.327 62.6952 129.919 62.6952 132.095C62.6952 134.151 62.0672 135.715 60.8112 136.787C59.5552 137.851 57.6512 138.383 55.0992 138.383C54.7552 138.383 54.4272 138.379 54.1152 138.371C53.8112 138.355 53.4912 138.331 53.1552 138.299V143.771H49.9512ZM55.1352 135.935C56.6792 135.935 57.8032 135.631 58.5072 135.023C59.2112 134.415 59.5632 133.447 59.5632 132.119C59.5632 130.767 59.2152 129.787 58.5192 129.179C57.8232 128.563 56.7552 128.255 55.3152 128.255C54.8992 128.255 54.5192 128.271 54.1752 128.303C53.8312 128.327 53.4912 128.371 53.1552 128.435V135.815C53.4832 135.855 53.8032 135.887 54.1152 135.911C54.4272 135.927 54.7672 135.935 55.1352 135.935ZM70.0285 143.939C69.5485 143.939 69.0525 143.927 68.5405 143.903C68.0365 143.887 67.5205 143.859 66.9925 143.819C66.4645 143.779 65.9325 143.727 65.3965 143.663V126.371C65.9165 126.259 66.4725 126.163 67.0645 126.083C67.6645 125.995 68.2685 125.931 68.8765 125.891C69.4925 125.843 70.0925 125.819 70.6765 125.819C73.7965 125.819 76.1485 126.559 77.7325 128.039C79.3245 129.511 80.1205 131.795 80.1205 134.891C80.1205 137.003 79.7485 138.727 79.0045 140.063C78.2605 141.391 77.1405 142.371 75.6445 143.003C74.1485 143.627 72.2765 143.939 70.0285 143.939ZM70.8205 141.299C72.1565 141.299 73.2685 141.087 74.1565 140.663C75.0525 140.231 75.7205 139.543 76.1605 138.599C76.6005 137.655 76.8205 136.415 76.8205 134.879C76.8205 133.351 76.6005 132.115 76.1605 131.171C75.7205 130.227 75.0565 129.539 74.1685 129.107C73.2885 128.667 72.1925 128.447 70.8805 128.447C70.5285 128.447 70.1525 128.467 69.7525 128.507C69.3605 128.539 68.9765 128.587 68.6005 128.651V141.191C68.9605 141.231 69.3165 141.259 69.6685 141.275C70.0285 141.291 70.4125 141.299 70.8205 141.299ZM82.9747 143.771V126.011H94.8667V128.651H86.1787V143.771H82.9747ZM85.0627 136.319V133.679H93.6547V136.319H85.0627Z" fill="white"/>
<path d="M131.788 62.2744H12.6094V65.8524H131.788V62.2744Z" fill="#B0B0B0" fill-opacity="0.5"/>
<path d="M131.788 70.4209H12.6094V74.0059H131.788V70.4209Z" fill="#B0B0B0" fill-opacity="0.5"/>
<path d="M131.788 78.5654H12.6094V82.1504H131.788V78.5654Z" fill="#B0B0B0" fill-opacity="0.5"/>
<path d="M131.788 86.1504H12.6094V89.7284H131.788V86.1504Z" fill="#B0B0B0" fill-opacity="0.5"/>
<path d="M131.788 94.2969H12.6094V97.8818H131.788V94.2969Z" fill="#B0B0B0" fill-opacity="0.5"/>
<path d="M131.788 102.441H12.6094V106.026H131.788V102.441Z" fill="#B0B0B0" fill-opacity="0.5"/>
<defs>
<filter id="filter0_f_7681_16531" x="98.7344" y="0.137695" width="48.2832" height="48.6934" filterUnits="userSpaceOnUse" color-interpolation-filters="sRGB">
<feFlood flood-opacity="0" result="BackgroundImageFix"/>
<feBlend mode="normal" in="SourceGraphic" in2="BackgroundImageFix" result="shape"/>
<feGaussianBlur stdDeviation="1.5" result="effect1_foregroundBlur_7681_16531"/>
</filter>
</defs>
</svg>
