<svg width="13" height="13" viewBox="0 0 13 13" fill="none" xmlns="http://www.w3.org/2000/svg">
<path d="M6.50038 1.25C7.89286 1.25 9.22831 1.80316 10.213 2.7878C11.1976 3.77244 11.7507 5.10789 11.7507 6.50037C11.7507 7.89286 11.1976 9.22831 10.213 10.2129C9.22831 11.1976 7.89286 11.7507 6.50038 11.7507C5.10789 11.7507 3.77244 11.1976 2.7878 10.2129C1.80316 9.22831 1.25 7.89286 1.25 6.50037C1.25 5.10789 1.80316 3.77244 2.7878 2.7878C3.77244 1.80316 5.10789 1.25 6.50038 1.25ZM7.28788 4.4735C7.67788 4.4735 7.99437 4.20275 7.99437 3.8015C7.99437 3.40025 7.67712 3.1295 7.28788 3.1295C6.89787 3.1295 6.58287 3.40025 6.58287 3.8015C6.58287 4.20275 6.89787 4.4735 7.28788 4.4735ZM7.42512 8.69375C7.42512 8.6135 7.45287 8.405 7.43712 8.2865L6.82063 8.996C6.69313 9.13025 6.53337 9.22325 6.45837 9.1985C6.42435 9.18598 6.39591 9.16173 6.37817 9.1301C6.36043 9.09848 6.35457 9.06156 6.36163 9.026L7.38912 5.78C7.47312 5.36825 7.24213 4.9925 6.75238 4.9445C6.23563 4.9445 5.47512 5.46875 5.01237 6.134C5.01237 6.2135 4.99738 6.4115 5.01313 6.53L5.62887 5.81975C5.75637 5.687 5.90488 5.59325 5.97988 5.61875C6.01683 5.63201 6.0471 5.65923 6.06421 5.69457C6.08132 5.7299 6.08389 5.77054 6.07137 5.80775L5.05288 9.038C4.93513 9.416 5.15788 9.7865 5.69788 9.8705C6.49288 9.8705 6.96238 9.359 7.42587 8.69375H7.42512Z" fill="#606060"/>
</svg>
